<svg viewBox="0 0 800 600" xmlns="http://www.w3.org/2000/svg">
  <!-- Header/Navigation -->
  <rect x="0" y="0" width="800" height="60" fill="#e0e0e0" />
  <rect x="20" y="15" width="120" height="30" fill="#c0c0c0" />
  <text x="50" y="35" font-family="Arial" font-size="14" text-anchor="middle">LOGO</text>
  <rect x="250" y="15" width="300" height="30" rx="15" fill="#ffffff" stroke="#c0c0c0" />
  <text x="270" y="35" font-family="Arial" font-size="14" fill="#a0a0a0">Search items, skills...</text>
  <circle cx="740" cy="30" r="15" fill="#c0c0c0" />
  <text x="740" y="35" font-family="Arial" font-size="14" text-anchor="middle">👤</text>
  
  <!-- Back Navigation -->
  <rect x="20" y="70" width="100" height="30" rx="5" fill="#f0f0f0" stroke="#c0c0c0" />
  <text x="45" y="90" font-family="Arial" font-size="14">← Back</text>
  
  <!-- Item Header -->
  <text x="20" y="130" font-family="Arial" font-size="24" font-weight="bold">Professional Lawn Mower</text>
  <rect x="20" y="140" width="150" height="1" fill="#c0c0c0" />
  <text x="20" y="160" font-family="Arial" font-size="16">Shared by David P.</text>
  
  <rect x="20" y="175" width="60" height="25" rx="12" fill="#e0e0e0" />
  <text x="50" y="192" font-family="Arial" font-size="12" text-anchor="middle">Tools</text>
  
  <rect x="90" y="175" width="80" height="25" rx="12" fill="#e0e0e0" />
  <text x="130" y="192" font-family="Arial" font-size="12" text-anchor="middle">Gardening</text>
  
  <!-- Main Content Area - Left Column -->
  <rect x="20" y="210" width="460" height="300" fill="#f0f0f0" />
  <text x="250" y="360" font-family="Arial" font-size="18" text-anchor="middle">ITEM IMAGE</text>
  
  <!-- Image Navigation -->
  <circle cx="50" cy="360" r="15" fill="#ffffff" stroke="#c0c0c0" />
  <text x="50" y="365" font-family="Arial" font-size="18" text-anchor="middle">‹</text>
  
  <circle cx="450" cy="360" r="15" fill="#ffffff" stroke="#c0c0c0" />
  <text x="450" y="365" font-family="Arial" font-size="18" text-anchor="middle">›</text>
  
  <!-- Image Indicators -->
  <circle cx="235" cy="490" r="6" fill="#4a86e8" />
  <circle cx="255" cy="490" r="6" fill="#c0c0c0" />
  <circle cx="275" cy="490" r="6" fill="#c0c0c0" />
  
  <!-- Description Section -->
  <text x="20" y="530" font-family="Arial" font-size="18" font-weight="bold">Description</text>
  <rect x="20" y="540" width="460" height="1" fill="#c0c0c0" />
  <text x="20" y="560" font-family="Arial" font-size="14">A high-quality gas-powered lawn mower in excellent condition. Perfect for medium to large yards. Has mulching capability and a grass catcher attachment. Easy to start and maneuver.</text>
  
  <!-- Right Column -->
  <!-- Borrowing Action Box -->
  <rect x="500" y="210" width="280" height="180" fill="#ffffff" stroke="#e0e0e0" />
  <text x="520" y="240" font-family="Arial" font-size="18" font-weight="bold">Availability</text>
  <text x="520" y="265" font-family="Arial" font-size="14">Available now</text>
  <text x="520" y="285" font-family="Arial" font-size="14">Max borrowing time: 2 days</text>
  <text x="520" y="305" font-family="Arial" font-size="14">Neighborhood: Oak Hill</text>
  
  <!-- Borrow Button -->
  <rect x="520" y="325" width="240" height="45" rx="5" fill="#4a86e8" />
  <text x="640" y="353" font-family="Arial" font-size="16" fill="white" text-anchor="middle">REQUEST TO BORROW</text>
  
  <!-- Specifications Box -->
  <rect x="500" y="410" width="280" height="140" fill="#ffffff" stroke="#e0e0e0" />
  <text x="520" y="440" font-family="Arial" font-size="18" font-weight="bold">Item Details</text>
  <text x="520" y="465" font-family="Arial" font-size="14">Condition: Excellent</text>
  <text x="520" y="485" font-family="Arial" font-size="14">Brand: Honda</text>
  <text x="520" y="505" font-family="Arial" font-size="14">Special Notes: Please return with</text>
  <text x="520" y="525" font-family="Arial" font-size="14">empty fuel tank</text>
  
  <!-- Similar Items -->
  <text x="20" y="600" font-family="Arial" font-size="18" font-weight="bold">Similar Items Nearby</text>
  <rect x="20" y="610" width="760" height="1" fill="#c0c0c0" />
  
  <!-- Similar Items Cards (simplified) -->
  <rect x="20" y="620" width="140" height="80" fill="#ffffff" stroke="#e0e0e0" />
  <rect x="20" y="620" width="140" height="40" fill="#f0f0f0" />
  <text x="30" y="675" font-family="Arial" font-size="12">Weed Trimmer</text>
  <text x="30" y="690" font-family="Arial" font-size="10">Chris M.</text>
  
  <rect x="170" y="620" width="140" height="80" fill="#ffffff" stroke="#e0e0e0" />
  <rect x="170" y="620" width="140" height="40" fill="#f0f0f0" />
  <text x="180" y="675" font-family="Arial" font-size="12">Electric Lawn Mower</text>
  <text x="180" y="690" font-family="Arial" font-size="10">Susan R.</text>
  
  <rect x="320" y="620" width="140" height="80" fill="#ffffff" stroke="#e0e0e0" />
  <rect x="320" y="620" width="140" height="40" fill="#f0f0f0" />
  <text x="330" y="675" font-family="Arial" font-size="12">Gardening Tools Set</text>
  <text x="330" y="690" font-family="Arial" font-size="10">Robert J.</text>
</svg>
