<svg viewBox="0 0 800 600" xmlns="http://www.w3.org/2000/svg">
  <!-- Header/Navigation -->
  <rect x="0" y="0" width="800" height="60" fill="#e0e0e0" />
  <rect x="20" y="15" width="120" height="30" fill="#c0c0c0" />
  <text x="50" y="35" font-family="Arial" font-size="14" text-anchor="middle">LOGO</text>
  <rect x="250" y="15" width="300" height="30" rx="15" fill="#ffffff" stroke="#c0c0c0" />
  <text x="270" y="35" font-family="Arial" font-size="14" fill="#a0a0a0">Search items, skills...</text>
  <circle cx="740" cy="30" r="15" fill="#c0c0c0" />
  <text x="740" y="35" font-family="Arial" font-size="14" text-anchor="middle">👤</text>
  
  <!-- Filter bar -->
  <rect x="0" y="60" width="800" height="50" fill="#f0f0f0" />
  <rect x="20" y="70" width="100" height="30" rx="5" fill="#ffffff" stroke="#c0c0c0" />
  <text x="70" y="90" font-family="Arial" font-size="12" text-anchor="middle">Category ▼</text>
  
  <rect x="130" y="70" width="70" height="30" rx="15" fill="#e0e0e0" />
  <text x="165" y="90" font-family="Arial" font-size="12" text-anchor="middle">Tools</text>
  
  <rect x="210" y="70" width="80" height="30" rx="15" fill="#e0e0e0" />
  <text x="250" y="90" font-family="Arial" font-size="12" text-anchor="middle">Kitchen</text>
  
  <rect x="300" y="70" width="90" height="30" rx="15" fill="#e0e0e0" />
  <text x="345" y="90" font-family="Arial" font-size="12" text-anchor="middle">Gardening</text>
  
  <rect x="650" y="70" width="130" height="30" rx="5" fill="#ffffff" stroke="#c0c0c0" />
  <text x="715" y="90" font-family="Arial" font-size="12" text-anchor="middle">Sort: Newest ▼</text>
  
  <!-- Sidebar -->
  <rect x="600" y="120" width="180" height="450" fill="#f7f7f7" />
  <rect x="620" y="130" width="140" height="40" rx="5" fill="#4a86e8" />
  <text x="690" y="155" font-family="Arial" font-size="14" fill="white" text-anchor="middle">+ ADD NEW ITEM</text>
  
  <text x="690" y="220" font-family="Arial" font-size="16" font-weight="bold" text-anchor="middle">Community Needs</text>
  <rect x="620" y="230" width="140" height="1" fill="#c0c0c0" />
  
  <rect x="620" y="245" width="140" height="60" fill="#ffffff" stroke="#e0e0e0" />
  <text x="630" y="265" font-family="Arial" font-size="12">Pressure Washer</text>
  <text x="630" y="285" font-family="Arial" font-size="10" fill="#666">Requested by Sarah</text>
  
  <rect x="620" y="315" width="140" height="60" fill="#ffffff" stroke="#e0e0e0" />
  <text x="630" y="335" font-family="Arial" font-size="12">Moving Help</text>
  <text x="630" y="355" font-family="Arial" font-size="10" fill="#666">Requested by Mike</text>
  
  <!-- Content Grid -->
  <!-- Row 1 -->
  <rect x="20" y="120" width="180" height="220" fill="#ffffff" stroke="#e0e0e0" />
  <rect x="20" y="120" width="180" height="120" fill="#f0f0f0" />
  <text x="110" y="180" font-family="Arial" font-size="14" text-anchor="middle">IMAGE</text>
  <text x="30" y="255" font-family="Arial" font-size="14" font-weight="bold">Lawn Mower</text>
  <text x="30" y="275" font-family="Arial" font-size="12" fill="#666">David P.</text>
  <text x="30" y="295" font-family="Arial" font-size="12">Available now</text>
  <rect x="120" y="280" width="70" height="30" rx="5" fill="#4a86e8" />
  <text x="155" y="300" font-family="Arial" font-size="12" fill="white" text-anchor="middle">Request</text>
  
  <rect x="210" y="120" width="180" height="220" fill="#ffffff" stroke="#e0e0e0" />
  <rect x="210" y="120" width="180" height="120" fill="#f0f0f0" />
  <text x="300" y="180" font-family="Arial" font-size="14" text-anchor="middle">IMAGE</text>
  <text x="220" y="255" font-family="Arial" font-size="14" font-weight="bold">Bread Maker</text>
  <text x="220" y="275" font-family="Arial" font-size="12" fill="#666">Jennifer L.</text>
  <text x="220" y="295" font-family="Arial" font-size="12">Available Weekends</text>
  <rect x="310" y="280" width="70" height="30" rx="5" fill="#4a86e8" />
  <text x="345" y="300" font-family="Arial" font-size="12" fill="white" text-anchor="middle">Request</text>
  
  <rect x="400" y="120" width="180" height="220" fill="#ffffff" stroke="#e0e0e0" />
  <rect x="400" y="120" width="180" height="120" fill="#f0f0f0" />
  <text x="490" y="180" font-family="Arial" font-size="14" text-anchor="middle">IMAGE</text>
  <text x="410" y="255" font-family="Arial" font-size="14" font-weight="bold">Carpentry Skills</text>
  <text x="410" y="275" font-family="Arial" font-size="12" fill="#666">Mark T.</text>
  <text x="410" y="295" font-family="Arial" font-size="12">Weekday evenings</text>
  <rect x="500" y="280" width="70" height="30" rx="5" fill="#4a86e8" />
  <text x="535" y="300" font-family="Arial" font-size="12" fill="white" text-anchor="middle">Request</text>
  
  <!-- Row 2 -->
  <rect x="20" y="350" width="180" height="220" fill="#ffffff" stroke="#e0e0e0" />
  <rect x="20" y="350" width="180" height="120" fill="#f0f0f0" />
  <text x="110" y="410" font-family="Arial" font-size="14" text-anchor="middle">IMAGE</text>
  <text x="30" y="485" font-family="Arial" font-size="14" font-weight="bold">Camping Tent</text>
  <text x="30" y="505" font-family="Arial" font-size="12" fill="#666">Lisa M.</text>
  <text x="30" y="525" font-family="Arial" font-size="12">Available now</text>
  <rect x="120" y="510" width="70" height="30" rx="5" fill="#4a86e8" />
  <text x="155" y="530" font-family="Arial" font-size="12" fill="white" text-anchor="middle">Request</text>
  
  <rect x="210" y="350" width="180" height="220" fill="#ffffff" stroke="#e0e0e0" />
  <rect x="210" y="350" width="180" height="120" fill="#f0f0f0" />
  <text x="300" y="410" font-family="Arial" font-size="14" text-anchor="middle">IMAGE</text>
  <text x="220" y="485" font-family="Arial" font-size="14" font-weight="bold">Piano Lessons</text>
  <text x="220" y="505" font-family="Arial" font-size="12" fill="#666">Rachel K.</text>
  <text x="220" y="525" font-family="Arial" font-size="12">Saturday mornings</text>
  <rect x="310" y="510" width="70" height="30" rx="5" fill="#4a86e8" />
  <text x="345" y="530" font-family="Arial" font-size="12" fill="white" text-anchor="middle">Request</text>
  
  <rect x="400" y="350" width="180" height="220" fill="#ffffff" stroke="#e0e0e0" />
  <rect x="400" y="350" width="180" height="120" fill="#f0f0f0" />
  <text x="490" y="410" font-family="Arial" font-size="14" text-anchor="middle">IMAGE</text>
  <text x="410" y="485" font-family="Arial" font-size="14" font-weight="bold">Folding Chairs (6)</text>
  <text x="410" y="505" font-family="Arial" font-size="12" fill="#666">Alex B.</text>
  <text x="410" y="525" font-family="Arial" font-size="12">Available now</text>
  <rect x="500" y="510" width="70" height="30" rx="5" fill="#4a86e8" />
  <text x="535" y="530" font-family="Arial" font-size="12" fill="white" text-anchor="middle">Request</text>
  
  <!-- Pagination -->
  <rect x="250" y="580" width="300" height="20" fill="none" />
  <circle cx="350" cy="590" r="10" fill="#4a86e8" />
  <text x="350" y="594" font-family="Arial" font-size="12" fill="white" text-anchor="middle">1</text>
  <circle cx="380" cy="590" r="10" fill="#f0f0f0" stroke="#c0c0c0" />
  <text x="380" y="594" font-family="Arial" font-size="12" text-anchor="middle">2</text>
  <circle cx="410" cy="590" r="10" fill="#f0f0f0" stroke="#c0c0c0" />
  <text x="410" y="594" font-family="Arial" font-size="12" text-anchor="middle">3</text>
  <text x="440" y="594" font-family="Arial" font-size="12" text-anchor="middle">...</text>
  
  <!-- Mobile Floating Action Button -->
  <circle cx="550" cy="550" r="25" fill="#4a86e8" />
  <text x="550" y="558" font-family="Arial" font-size="24" fill="white" text-anchor="middle">+</text>
</svg>
