<svg viewBox="0 0 800 1000" xmlns="http://www.w3.org/2000/svg">
  <!-- Header -->
  <rect x="0" y="0" width="800" height="60" fill="#e0e0e0" />
  <rect x="20" y="15" width="120" height="30" fill="#c0c0c0" />
  <text x="50" y="35" font-family="Arial" font-size="14" text-anchor="middle">LOGO</text>
  <circle cx="740" cy="30" r="15" fill="#c0c0c0" />
  <text x="740" y="35" font-family="Arial" font-size="14" text-anchor="middle">👤</text>
  
  <!-- Notification -->
  <rect x="0" y="60" width="800" height="50" fill="#f7f7f7" />
  <text x="400" y="90" font-family="Arial" font-size="16" text-anchor="middle">You have 1 new borrowing request</text>
  
  <!-- STEP 1: REQUEST REVIEW -->
  <text x="20" y="140" font-family="Arial" font-size="24" font-weight="bold">New Request</text>
  
  <rect x="20" y="160" width="760" height="140" fill="#ffffff" stroke="#e0e0e0" />
  <rect x="20" y="160" width="120" height="140" fill="#f0f0f0" />
  <circle cx="80" cy="200" r="30" fill="#e0e0e0" />
  <text x="80" y="205" font-family="Arial" font-size="14" text-anchor="middle">👤</text>
  <text x="80" y="250" font-family="Arial" font-size="14" text-anchor="middle">Mary S.</text>
  
  <text x="160" y="190" font-family="Arial" font-size="18" font-weight="bold">Professional Lawn Mower</text>
  <text x="160" y="220" font-family="Arial" font-size="16">Requested for: May 5-7, 2025</text>
  <text x="160" y="245" font-family="Arial" font-size="14">Preferred pickup: Morning (8am-12pm)</text>
  <text x="160" y="270" font-family="Arial" font-size="14">"I need to mow my lawn before a backyard party this weekend."</text>
  
  <rect x="550" y="220" width="100" height="40" rx="5" fill="#4a86e8" />
  <text x="600" y="245" font-family="Arial" font-size="14" fill="white" text-anchor="middle">ACCEPT</text>
  
  <rect x="660" y="220" width="100" height="40" rx="5" fill="#ffffff" stroke="#c0c0c0" />
  <text x="710" y="245" font-family="Arial" font-size="14" text-anchor="middle">DECLINE</text>
  
  <!-- STEP 2: AFTER ACCEPTING -->
  <rect x="0" y="320" width="800" height="10" fill="#f0f0f0" />
  <text x="20" y="360" font-family="Arial" font-size="24" font-weight="bold">Arrange Pickup</text>
  
  <rect x="20" y="380" width="760" height="320" fill="#ffffff" stroke="#e0e0e0" />
  
  <text x="40" y="410" font-family="Arial" font-size="18" font-weight="bold">Professional Lawn Mower - Borrowing Confirmed</text>
  <text x="40" y="435" font-family="Arial" font-size="16">Borrower: Mary S.</text>
  <text x="40" y="460" font-family="Arial" font-size="16">Dates: May 5-7, 2025</text>
  
  <rect x="40" y="480" width="720" height="1" fill="#e0e0e0" />
  
  <text x="40" y="510" font-family="Arial" font-size="16" font-weight="bold">Confirm Pickup Details</text>
  
  <text x="40" y="540" font-family="Arial" font-size="14">Pickup location:</text>
  <rect x="160" y="520" width="400" height="40" fill="#ffffff" stroke="#c0c0c0" rx="5" />
  <text x="175" y="545" font-family="Arial" font-size="14">Corner of Oak St. and Pine Ave.</text>
  
  <text x="40" y="585" font-family="Arial" font-size="14">Contact phone:</text>
  <rect x="160" y="565" width="400" height="40" fill="#ffffff" stroke="#c0c0c0" rx="5" />
  <text x="175" y="590" font-family="Arial" font-size="14">555-123-4567</text>
  
  <text x="40" y="630" font-family="Arial" font-size="14">Additional notes:</text>
  <rect x="160" y="610" width="600" height="70" fill="#ffffff" stroke="#c0c0c0" rx="5" />
  <text x="175" y="635" font-family="Arial" font-size="14" fill="#888">Please bring ID. Will show how to operate the mower when you pick it up.</text>
  
  <rect x="600" y="690" width="160" height="45" rx="5" fill="#4a86e8" />
  <text x="680" y="718" font-family="Arial" font-size="16" fill="white" text-anchor="middle">SEND DETAILS</text>
  
  <!-- STEP 3: HANDOVER DOCUMENTATION -->
  <rect x="0" y="720" width="800" height="10" fill="#f0f0f0" />
  <text x="20" y="760" font-family="Arial" font-size="24" font-weight="bold">Confirm Handover</text>
  
  <rect x="20" y="780" width="760" height="200" fill="#ffffff" stroke="#e0e0e0" />
  
  <text x="40" y="810" font-family="Arial" font-size="16" font-weight="bold">Document Item Condition</text>
  <text x="40" y="835" font-family="Arial" font-size="14">Take photos of the item before handover</text>
  
  <rect x="40" y="850" width="120" height="100" fill="#f0f0f0" stroke="#c0c0c0" rx="5" />
  <text x="100" y="900" font-family="Arial" font-size="24" text-anchor="middle">+</text>
  
  <rect x="180" y="850" width="120" height="100" fill="#f0f0f0" stroke="#c0c0c0" rx="5" />
  <text x="240" y="900" font-family="Arial" font-size="24" text-anchor="middle">+</text>
  
  <rect x="40" y="960" width="340" height="1" fill="#e0e0e0" />
  
  <text x="400" y="850" font-family="Arial" font-size="16" font-weight="bold">Handover Confirmation</text>
  <text x="400" y="880" font-family="Arial" font-size="14">I confirm that Mary S. has picked up the lawn mower</text>
  <text x="400" y="905" font-family="Arial" font-size="14">in good working condition.</text>
  
  <rect x="400" y="925" width="200" height="45" rx="5" fill="#4a86e8" />
  <text x="500" y="953" font-family="Arial" font-size="16" fill="white" text-anchor="middle">CONFIRM HANDOVER</text>
</svg>
